<?xml version="1.0" encoding="UTF-8" standalone="no"?>
<!-- Created with Inkscape (http://www.inkscape.org/) -->

<svg
   xmlns:dc="http://purl.org/dc/elements/1.1/"
   xmlns:cc="http://creativecommons.org/ns#"
   xmlns:rdf="http://www.w3.org/1999/02/22-rdf-syntax-ns#"
   xmlns:svg="http://www.w3.org/2000/svg"
   xmlns="http://www.w3.org/2000/svg"
   xmlns:sodipodi="http://sodipodi.sourceforge.net/DTD/sodipodi-0.dtd"
   xmlns:inkscape="http://www.inkscape.org/namespaces/inkscape"
   version="1.1"
   id="svg815"
   xml:space="preserve"
   width="600"
   height="600"
   viewBox="0 0 600 600"
   sodipodi:docname="faq.svg"
   inkscape:version="0.92.3 (2405546, 2018-03-11)"><metadata
     id="metadata821"><rdf:RDF><cc:Work
         rdf:about=""><dc:format>image/svg+xml</dc:format><dc:type
           rdf:resource="http://purl.org/dc/dcmitype/StillImage" /><dc:title></dc:title></cc:Work></rdf:RDF></metadata><defs
     id="defs819"><clipPath
       clipPathUnits="userSpaceOnUse"
       id="clipPath837"><path
         d="M 0,1920 H 1080 V 0 H 0 Z"
         id="path835"
         inkscape:connector-curvature="0" /></clipPath><clipPath
       clipPathUnits="userSpaceOnUse"
       id="clipPath849"><path
         d="M 342.906,1015.44 H 867.914 V 641.527 H 342.906 Z"
         id="path847"
         inkscape:connector-curvature="0" /></clipPath><clipPath
       clipPathUnits="userSpaceOnUse"
       id="clipPath921"><path
         d="m 466.555,872.883 h 285.351 v -7.255 H 466.555 Z"
         id="path919"
         inkscape:connector-curvature="0" /></clipPath><clipPath
       clipPathUnits="userSpaceOnUse"
       id="clipPath949"><path
         d="M 168.792,1225.83 H 693.8 V 851.915 H 168.792 Z"
         id="path947"
         inkscape:connector-curvature="0" /></clipPath><clipPath
       clipPathUnits="userSpaceOnUse"
       id="clipPath1021"><path
         d="M 364.988,1090.53 H 650.34 v -7.26 H 364.988 Z"
         id="path1019"
         inkscape:connector-curvature="0" /></clipPath></defs><sodipodi:namedview
     pagecolor="#ffffff"
     bordercolor="#666666"
     borderopacity="1"
     objecttolerance="10"
     gridtolerance="10"
     guidetolerance="10"
     inkscape:pageopacity="0"
     inkscape:pageshadow="2"
     inkscape:window-width="1920"
     inkscape:window-height="1001"
     id="namedview817"
     showgrid="false"
     inkscape:zoom="0.89272231"
     inkscape:cx="384.19826"
     inkscape:cy="267.06574"
     inkscape:window-x="-9"
     inkscape:window-y="-9"
     inkscape:window-maximized="1"
     inkscape:current-layer="g823" /><g
     id="g823"
     inkscape:groupmode="layer"
     inkscape:label="FAQ Icon"
     transform="matrix(1.3333333,0,0,-1.3333333,0,600)"><g
       id="g827"
       transform="translate(486.9126,869.2569)"><path
         d="M 0,0 H 244.636 Z"
         style="fill:#fbbe10;fill-opacity:1;fill-rule:nonzero;stroke:none"
         id="path829"
         inkscape:connector-curvature="0" /></g><g
       id="g831"
       transform="matrix(0.58445891,0,0,0.58445891,-91.151987,-336.08081)"><g
         id="g833"
         clip-path="url(#clipPath837)"><g
           id="g839"
           transform="translate(731.5466,865.6279)"><path
             d="m 0,0 h -244.633 c -2.005,0 -3.627,1.623 -3.627,3.628 0,2.005 1.622,3.627 3.627,3.627 H 0 C 2.005,7.255 3.628,5.633 3.628,3.628 3.628,1.623 2.005,0 0,0"
             style="fill:#fbbe10;fill-opacity:1;fill-rule:nonzero;stroke:none"
             id="path841"
             inkscape:connector-curvature="0" /></g><g
           id="g843"><g
             id="g845" /><g
             id="g857"><g
               clip-path="url(#clipPath849)"
               id="g855"
               style="opacity:0.14999402"><g
                 transform="translate(429.9636,641.5273)"
                 id="g853"><path
                   d="m 0,0 h 275.153 c 47.882,0 87.058,39.175 87.058,87.057 v 62.68 l 70.951,88.944 2.975,5.006 c 1.161,2.684 1.813,5.659 1.813,8.561 0,5.44 -2.103,10.882 -6.239,15.017 -4.57,4.498 -10.664,6.602 -16.54,6.166 h -0.146 l -4.424,-1.16 -2.454,-0.611 2.418,0.623 -48.354,-12.055 v 26.626 c 0,47.879 -39.176,87.056 -87.058,87.056 L 0,373.91 c -47.882,0 -87.058,-39.177 -87.058,-87.056 V 87.057 C -87.058,39.175 -47.882,0 0,0"
                   style="fill:#000000;fill-opacity:1;fill-rule:nonzero;stroke:none"
                   id="path851"
                   inkscape:connector-curvature="0" /></g></g></g></g><g
           id="g859"
           transform="translate(466.2371,677.8008)"><path
             d="m 0,0 h 275.154 c 47.881,0 87.057,39.175 87.057,87.057 v 62.68 l 70.952,88.944 2.974,5.006 c 1.161,2.684 1.814,5.659 1.814,8.561 0,5.441 -2.104,10.882 -6.239,15.017 -4.57,4.498 -10.664,6.602 -16.541,6.167 h -0.146 l -4.424,-1.161 -2.454,-0.611 2.418,0.624 -48.354,-12.055 v 26.625 c 0,47.88 -39.176,87.057 -87.057,87.057 H 0 c -47.881,0 -87.057,-39.177 -87.057,-87.057 V 87.057 C -87.057,39.175 -47.881,0 0,0"
             style="fill:#ffffff;fill-opacity:1;fill-rule:nonzero;stroke:none"
             id="path861"
             inkscape:connector-curvature="0" /></g><g
           id="g863"
           transform="translate(824.6511,940.1846)"><path
             d="M 0,0 68.512,12.581 65.207,-39.248 -9.068,-129.57 Z"
             style="fill:#ffffff;fill-opacity:1;fill-rule:nonzero;stroke:none"
             id="path865"
             inkscape:connector-curvature="0" /></g><g
           id="g867"
           transform="translate(833.865,829.9121)"><path
             d="m 0,0 v -52.307 c 0,-47.881 -39.176,-87.057 -87.057,-87.057 h -275.154 c -47.882,0 -87.058,39.176 -87.058,87.057 V 63.77 147.489 c 0,47.882 39.176,87.057 87.058,87.057 h 260.645 14.509 C -39.176,234.546 0,195.371 0,147.489 v -37.217"
             style="fill:#ffffff;fill-opacity:1;fill-rule:nonzero;stroke:none"
             id="path869"
             inkscape:connector-curvature="0" /></g><g
           id="g871"
           transform="translate(746.8074,686.9199)"><path
             d="m 0,0 h -275.154 c -50.004,0 -90.685,40.68 -90.685,90.685 V 290.48 c 0,50.004 40.681,90.685 90.685,90.685 H 0 c 50.004,0 90.685,-40.681 90.685,-90.685 v -37.215 c 0,-2.005 -1.622,-3.628 -3.627,-3.628 -2.005,0 -3.628,1.623 -3.628,3.628 v 37.215 c 0,46.005 -37.429,83.43 -83.43,83.43 h -275.154 c -46.001,0 -83.43,-37.425 -83.43,-83.43 V 90.685 c 0,-46.005 37.429,-83.431 83.43,-83.431 L 0,7.254 c 46.001,0 83.43,37.426 83.43,83.431 v 52.305 c 0,2.006 1.623,3.628 3.628,3.628 2.005,0 3.627,-1.622 3.627,-3.628 V 90.685 C 90.685,40.68 50.004,0 0,0"
             style="fill:#581845;fill-opacity:1;fill-rule:nonzero;stroke:none"
             id="path873"
             inkscape:connector-curvature="0" /></g><g
           id="g875"
           transform="translate(884.3972,952.7656)"><path
             d="M 0,0 -50.532,-12.581 -5.189,-1.336 Z"
             style="fill:#ffffff;fill-opacity:1;fill-rule:nonzero;stroke:none"
             id="path877"
             inkscape:connector-curvature="0" /></g><g
           id="g879"
           transform="translate(834.7361,936.6631)"><path
             d="M 0,0 -1.75,7.042 -1.722,7.046 48.785,19.625 50.57,12.59 45.378,11.254 Z"
             style="fill:#581845;fill-opacity:1;fill-rule:nonzero;stroke:none"
             id="path881"
             inkscape:connector-curvature="0" /></g><g
           id="g883"
           transform="translate(904.5994,918.5654)"><path
             d="M 0,0 3.047,4.934 -70.734,-88.653 Z"
             style="fill:#ffffff;fill-opacity:1;fill-rule:nonzero;stroke:none"
             id="path885"
             inkscape:connector-curvature="0" /></g><g
           id="g887"
           transform="translate(836.699,827.6504)"><path
             d="m 0,0 -5.683,4.51 73.781,93.586 5.937,-4.153 -3.302,-5.292 z"
             style="fill:#581845;fill-opacity:1;fill-rule:nonzero;stroke:none"
             id="path889"
             inkscape:connector-curvature="0" /></g><g
           id="g891"
           transform="translate(833.865,940.1846)"><path
             d="m 0,0 45.343,11.245 5.222,1.306 2.105,0.58 h 0.072 0.072 c 5.877,0.435 11.971,-1.668 16.469,-6.166 6.384,-6.385 7.907,-15.816 4.498,-23.651"
             style="fill:#ffffff;fill-opacity:1;fill-rule:nonzero;stroke:none"
             id="path893"
             inkscape:connector-curvature="0" /></g><g
           id="g895"
           transform="translate(907.6453,919.8721)"><path
             d="m 0,0 c -0.482,0 -0.978,0.096 -1.445,0.302 -1.842,0.797 -2.679,2.936 -1.885,4.771 2.933,6.734 1.467,14.443 -3.733,19.639 -3.621,3.62 -8.531,5.522 -13.631,5.115 L -27.56,28.038 -72.909,16.791 c -1.984,-0.475 -3.911,0.709 -4.393,2.649 -0.481,1.942 0.701,3.912 2.65,4.393 l 53.54,13.238 c 7.02,0.486 14.062,-2.107 19.177,-7.23 C 5.384,22.522 7.453,11.665 3.329,2.183 2.734,0.815 1.396,0 0,0"
             style="fill:#581845;fill-opacity:1;fill-rule:nonzero;stroke:none"
             id="path897"
             inkscape:connector-curvature="0" /></g><g
           id="g899"
           transform="translate(470.1814,941.8047)"><path
             d="M 0,0 H 278.1"
             style="fill:#fbbe10;fill-opacity:1;fill-rule:nonzero;stroke:none"
             id="path901"
             inkscape:connector-curvature="0" /></g><g
           id="g903"
           transform="translate(748.2791,938.1758)"><path
             d="m 0,0 h -278.097 c -2.006,0 -3.628,1.622 -3.628,3.628 0,2.005 1.622,3.627 3.628,3.627 H 0 C 2.005,7.255 3.627,5.633 3.627,3.628 3.627,1.622 2.005,0 0,0"
             style="fill:#fbbe10;fill-opacity:1;fill-rule:nonzero;stroke:none"
             id="path905"
             inkscape:connector-curvature="0" /></g><g
           id="g907"
           transform="translate(470.1814,869.2568)"><path
             d="M 0,0 H 278.1"
             style="fill:#fbbe10;fill-opacity:1;fill-rule:nonzero;stroke:none"
             id="path909"
             inkscape:connector-curvature="0" /></g><g
           id="g911"
           transform="translate(748.2791,865.6279)"><path
             d="m 0,0 h -278.097 c -2.006,0 -3.628,1.623 -3.628,3.628 0,2.005 1.622,3.627 3.628,3.627 H 0 C 2.005,7.255 3.627,5.633 3.627,3.628 3.627,1.623 2.005,0 0,0"
             style="fill:#fbbe10;fill-opacity:1;fill-rule:nonzero;stroke:none"
             id="path913"
             inkscape:connector-curvature="0" /></g><g
           id="g915"><g
             id="g917" /><g
             id="g933"><g
               clip-path="url(#clipPath921)"
               id="g931"
               style="opacity:0.25"><g
                 transform="translate(470.1814,869.2568)"
                 id="g925"><path
                   d="M 0,0 H 278.1"
                   style="fill:#db162f;fill-opacity:1;fill-rule:nonzero;stroke:none"
                   id="path923"
                   inkscape:connector-curvature="0" /></g><g
                 transform="translate(748.2791,865.6279)"
                 id="g929"><path
                   d="m 0,0 h -278.097 c -2.006,0 -3.628,1.623 -3.628,3.628 0,2.005 1.622,3.627 3.628,3.627 H 0 C 2.005,7.255 3.627,5.633 3.627,3.628 3.627,1.623 2.005,0 0,0"
                   style="fill:#db162f;fill-opacity:1;fill-rule:nonzero;stroke:none"
                   id="path927"
                   inkscape:connector-curvature="0" /></g></g></g></g><g
           id="g935"
           transform="translate(470.1814,796.71)"><path
             d="M 0,0 H 278.1"
             style="fill:#db162f;fill-opacity:1;fill-rule:nonzero;stroke:none"
             id="path937"
             inkscape:connector-curvature="0" /></g><g
           id="g939"
           transform="translate(748.2791,793.0811)"><path
             d="m 0,0 h -278.097 c -2.006,0 -3.628,1.622 -3.628,3.627 0,2.005 1.622,3.627 3.628,3.627 H 0 C 2.005,7.254 3.627,5.632 3.627,3.627 3.627,1.622 2.005,0 0,0"
             style="fill:#db162f;fill-opacity:1;fill-rule:nonzero;stroke:none"
             id="path941"
             inkscape:connector-curvature="0" /></g><g
           id="g943"><g
             id="g945" /><g
             id="g957"><g
               clip-path="url(#clipPath949)"
               id="g955"
               style="opacity:0.14999402"><g
                 transform="translate(606.7429,1225.8257)"
                 id="g953"><path
                   d="m 0,0 h -275.154 c -47.882,0 -87.057,-39.175 -87.057,-87.057 v -62.68 l -70.952,-88.944 -2.975,-5.006 c -1.161,-2.685 -1.813,-5.659 -1.813,-8.561 0,-5.441 2.103,-10.882 6.239,-15.017 4.57,-4.498 10.664,-6.603 16.54,-6.166 h 0.146 l 4.425,1.16 2.454,0.61 -2.419,-0.623 48.355,12.056 v -26.626 c 0,-47.88 39.175,-87.057 87.057,-87.057 H 0 c 47.881,0 87.057,39.177 87.057,87.057 V -87.057 C 87.057,-39.175 47.881,0 0,0"
                   style="fill:#000000;fill-opacity:1;fill-rule:nonzero;stroke:none"
                   id="path951"
                   inkscape:connector-curvature="0" /></g></g></g></g><g
           id="g959"
           transform="translate(643.0164,1262.0996)"><path
             d="m 0,0 h -275.153 c -47.882,0 -87.058,-39.175 -87.058,-87.057 v -62.681 l -70.952,-88.943 -2.974,-5.006 c -1.161,-2.685 -1.813,-5.659 -1.813,-8.562 0,-5.44 2.103,-10.881 6.238,-15.016 4.57,-4.498 10.664,-6.602 16.541,-6.167 h 0.146 l 4.424,1.161 2.454,0.61 -2.418,-0.623 48.354,12.055 v -26.625 c 0,-47.88 39.176,-87.057 87.058,-87.057 H 0 c 47.881,0 87.057,39.177 87.057,87.057 V -87.057 C 87.057,-39.175 47.881,0 0,0"
             style="fill:#ffffff;fill-opacity:1;fill-rule:nonzero;stroke:none"
             id="path961"
             inkscape:connector-curvature="0" /></g><g
           id="g963"
           transform="translate(207.2908,1027.0127)"><path
             d="M 0,0 92.208,117.321 88.58,-10.753 57.748,-15.985 Z"
             style="fill:#ffffff;fill-opacity:1;fill-rule:nonzero;stroke:none"
             id="path965"
             inkscape:connector-curvature="0" /></g><g
           id="g967"
           transform="translate(283.03,1014.6187)"><path
             d="m 0,0 v -26.625 c 0,-47.881 39.176,-87.057 87.058,-87.057 h -2.223 277.376 c 47.882,0 87.058,39.176 87.058,87.057 v 83.72 116.076 c 0,47.881 -39.176,87.057 -87.058,87.057 H 87.058 C 39.176,260.228 0,221.052 0,173.171 V 110.49"
             style="fill:#ffffff;fill-opacity:1;fill-rule:nonzero;stroke:none"
             id="path969"
             inkscape:connector-curvature="0" /></g><g
           id="g971"
           transform="translate(645.241,897.3076)"><path
             d="m 0,0 h -275.154 c -50.004,0 -90.685,40.681 -90.685,90.685 v 26.628 c 0,2.004 1.622,3.627 3.627,3.627 2.005,0 3.628,-1.623 3.628,-3.627 V 90.685 c 0,-46.005 37.429,-83.43 83.43,-83.43 L 0,7.255 c 46.001,0 83.43,37.425 83.43,83.43 v 199.796 c 0,46.005 -37.429,83.43 -83.43,83.43 h -275.154 c -46.001,0 -83.43,-37.425 -83.43,-83.43 v -62.679 c 0,-2.005 -1.623,-3.627 -3.628,-3.627 -2.005,0 -3.627,1.622 -3.627,3.627 v 62.679 c 0,50.004 40.681,90.685 90.685,90.685 H 0 c 50.004,0 90.685,-40.681 90.685,-90.685 V 90.685 C 90.685,40.681 50.004,0 0,0"
             style="fill:#581845;fill-opacity:1;fill-rule:nonzero;stroke:none"
             id="path973"
             inkscape:connector-curvature="0" /></g><g
           id="g975"
           transform="translate(234.6756,1002.563)"><path
             d="M 0,0 48.354,12.056 2.867,0.738 Z"
             style="fill:#ffffff;fill-opacity:1;fill-rule:nonzero;stroke:none"
             id="path977"
             inkscape:connector-curvature="0" /></g><g
           id="g979"
           transform="translate(235.5545,999.041)"><path
             d="M 0,0 -1.785,7.035 1.084,7.775 46.597,19.1 48.354,12.058 Z"
             style="fill:#581845;fill-opacity:1;fill-rule:nonzero;stroke:none"
             id="path981"
             inkscape:connector-curvature="0" /></g><g
           id="g983"
           transform="translate(283.03,1014.6187)"><path
             d="m 0,0 -48.389,-12.043 -4.425,-1.161 h -0.073 -0.073 c -5.876,-0.435 -11.97,1.669 -16.541,6.167 -4.135,4.135 -6.238,9.576 -6.238,15.017 0,2.902 0.652,5.876 1.813,8.561"
             style="fill:#ffffff;fill-opacity:1;fill-rule:nonzero;stroke:none"
             id="path985"
             inkscape:connector-curvature="0" /></g><g
           id="g987"
           transform="translate(228.4695,997.7231)"><path
             d="m 0,0 c -6.404,0 -12.73,2.593 -17.484,7.272 -4.726,4.733 -7.319,10.975 -7.319,17.603 0,3.351 0.73,6.808 2.111,10.003 0.794,1.838 2.933,2.685 4.768,1.888 1.842,-0.797 2.685,-2.933 1.892,-4.771 -0.992,-2.289 -1.517,-4.754 -1.517,-7.12 0,-4.691 1.835,-9.115 5.172,-12.452 3.67,-3.61 8.672,-5.501 13.709,-5.115 L 5.25,8.36 53.682,20.418 c 1.948,0.468 3.91,-0.698 4.399,-2.646 0.481,-1.941 -0.701,-3.911 -2.643,-4.396 L 1.743,0.063 C 1.162,0.021 0.581,0 0,0"
             style="fill:#581845;fill-opacity:1;fill-rule:nonzero;stroke:none"
             id="path989"
             inkscape:connector-curvature="0" /></g><g
           id="g991"
           transform="translate(283.03,1125.1084)"><path
             d="m 0,0 -70.951,-88.943 -2.975,-5.006 z"
             style="fill:#ffffff;fill-opacity:1;fill-rule:nonzero;stroke:none"
             id="path993"
             inkscape:connector-curvature="0" /></g><g
           id="g995"
           transform="translate(211.9558,1028.917)"><path
             d="m 0,0 -5.966,4.091 2.969,5.006 71.236,89.36 5.683,-4.506 z"
             style="fill:#581845;fill-opacity:1;fill-rule:nonzero;stroke:none"
             id="path997"
             inkscape:connector-curvature="0" /></g><g
           id="g999"
           transform="translate(368.615,1159.4478)"><path
             d="M 0,0 H 278.099"
             style="fill:#fbbe10;fill-opacity:1;fill-rule:nonzero;stroke:none"
             id="path1001"
             inkscape:connector-curvature="0" /></g><g
           id="g1003"
           transform="translate(646.7117,1155.8188)"><path
             d="m 0,0 h -278.097 c -2.005,0 -3.627,1.622 -3.627,3.627 0,2.005 1.622,3.628 3.627,3.628 H 0 C 2.006,7.255 3.628,5.632 3.628,3.627 3.628,1.622 2.006,0 0,0"
             style="fill:#fbbe10;fill-opacity:1;fill-rule:nonzero;stroke:none"
             id="path1005"
             inkscape:connector-curvature="0" /></g><g
           id="g1007"
           transform="translate(368.615,1086.8999)"><path
             d="M 0,0 H 278.099"
             style="fill:#fbbe10;fill-opacity:1;fill-rule:nonzero;stroke:none"
             id="path1009"
             inkscape:connector-curvature="0" /></g><g
           id="g1011"
           transform="translate(646.7117,1083.271)"><path
             d="m 0,0 h -278.097 c -2.005,0 -3.627,1.623 -3.627,3.627 0,2.005 1.622,3.628 3.627,3.628 H 0 C 2.006,7.255 3.628,5.632 3.628,3.627 3.628,1.623 2.006,0 0,0"
             style="fill:#fbbe10;fill-opacity:1;fill-rule:nonzero;stroke:none"
             id="path1013"
             inkscape:connector-curvature="0" /></g><g
           id="g1015"><g
             id="g1017" /><g
             id="g1033"><g
               clip-path="url(#clipPath1021)"
               id="g1031"
               style="opacity:0.25"><g
                 transform="translate(368.615,1086.8999)"
                 id="g1025"><path
                   d="M 0,0 H 278.099"
                   style="fill:#db162f;fill-opacity:1;fill-rule:nonzero;stroke:none"
                   id="path1023"
                   inkscape:connector-curvature="0" /></g><g
                 transform="translate(646.7117,1083.271)"
                 id="g1029"><path
                   d="m 0,0 h -278.097 c -2.005,0 -3.627,1.623 -3.627,3.627 0,2.005 1.622,3.628 3.627,3.628 H 0 C 2.006,7.255 3.628,5.632 3.628,3.627 3.628,1.623 2.006,0 0,0"
                   style="fill:#db162f;fill-opacity:1;fill-rule:nonzero;stroke:none"
                   id="path1027"
                   inkscape:connector-curvature="0" /></g></g></g></g><g
           id="g1035"
           transform="translate(368.615,1014.3525)"><path
             d="M 0,0 H 278.099"
             style="fill:#db162f;fill-opacity:1;fill-rule:nonzero;stroke:none"
             id="path1037"
             inkscape:connector-curvature="0" /></g><g
           id="g1039"
           transform="translate(646.7117,1010.7236)"><path
             d="m 0,0 h -278.097 c -2.005,0 -3.627,1.622 -3.627,3.627 0,2.005 1.622,3.627 3.627,3.627 H 0 C 2.006,7.254 3.628,5.632 3.628,3.627 3.628,1.622 2.006,0 0,0"
             style="fill:#db162f;fill-opacity:1;fill-rule:nonzero;stroke:none"
             id="path1041"
             inkscape:connector-curvature="0" /></g></g></g></g></svg>